<svg xmlns="http://www.w3.org/2000/svg" viewBox="0 0 1400 1700"><defs><linearGradient id="g" x1="0" y1="0" x2="1" y2="1"><stop offset="0" stop-color="#314a5f"/><stop offset="0.5" stop-color="#7f9eb0"/><stop offset="1" stop-color="#d9c8a8"/></linearGradient><filter id="soft"><feGaussianBlur stdDeviation="28"/></filter></defs><rect width="1400" height="1700" fill="#f1eadf"/><rect x="90" y="90" width="1220" height="1520" rx="18" fill="url(#g)"/><circle cx="1010" cy="430" r="220" fill="#f3e9d0" opacity=".5"/><path d="M100 1240C270 1070 370 1110 530 950C690 790 760 1130 920 940C1080 750 1180 840 1300 720V1610H100Z" fill="#243a4b" opacity=".92"/><path d="M100 1280C280 1160 420 1210 570 1040C720 870 830 1160 980 1010C1110 880 1190 910 1300 820" fill="none" stroke="#e9e1cd" stroke-width="14" opacity=".65"/><rect x="90" y="90" width="1220" height="1520" rx="18" fill="none" stroke="#fffaf0" stroke-opacity=".7" stroke-width="4"/><text x="160" y="1435" font-family="Georgia,serif" font-size="56" fill="#fff9ee">Blue Hour</text><text x="160" y="1505" font-family="Arial,sans-serif" font-size="24" letter-spacing="7" fill="#fff9ee">VC-008</text></svg>